# xmcd CD database file
#
# Track frame offsets:
#	180
#	21308
#	35560
#	51055
#	66129
#	85417
#	108308
#	133312
#	140048
#	158102
#	175353
#	195675
#
# Disc length: 2941 seconds
#
# Revision: 0
# Processed by: cddbd v1.4PL0 Copyright (c) Steve Scherf et al.
# Submitted via: CDex 1.51
#
DISCID=b00b7b0c
DTITLE=Fernando Villalona - tiempo de boleros
DYEAR=1998
DGENRE=Merengue
TTITLE0=quijote
TTITLE1=la cartita
TTITLE2=respeta mi dolor
TTITLE3=hablame mi vida
TTITLE4=delirante amor
TTITLE5=mi viejo
TTITLE6=te siento
TTITLE7=dominicano soy
TTITLE8=mi pueblo
TTITLE9=mala
TTITLE10=penelope
TTITLE11=payaso
EXTD=YEAR: 1998
EXTT0=
EXTT1=
EXTT2=
EXTT3=
EXTT4=
EXTT5=
EXTT6=
EXTT7=
EXTT8=
EXTT9=
EXTT10=
EXTT11=
PLAYORDER=
